<svg width="698" height="19" viewBox="0 0 698 19" fill="none" xmlns="http://www.w3.org/2000/svg">
<path d="M6.59277 2.28418C5.88379 2.28418 5.24512 2.40723 4.67676 2.65332C4.11426 2.89355 3.63379 3.24512 3.23535 3.70801C2.84277 4.16504 2.54102 4.71875 2.33008 5.36914C2.11914 6.01953 2.01367 6.75195 2.01367 7.56641C2.01367 8.64453 2.18066 9.58203 2.51465 10.3789C2.85449 11.1699 3.3584 11.7822 4.02637 12.2158C4.7002 12.6494 5.54102 12.8662 6.54883 12.8662C7.12305 12.8662 7.66211 12.8193 8.16602 12.7256C8.67578 12.626 9.1709 12.5029 9.65137 12.3564V13.6572C9.18262 13.833 8.69043 13.9619 8.1748 14.0439C7.65918 14.1318 7.04688 14.1758 6.33789 14.1758C5.03125 14.1758 3.93848 13.9062 3.05957 13.3672C2.18652 12.8223 1.53027 12.0547 1.09082 11.0645C0.657227 10.0742 0.44043 8.90527 0.44043 7.55762C0.44043 6.58496 0.575195 5.69727 0.844727 4.89453C1.12012 4.08594 1.51855 3.38867 2.04004 2.80273C2.56738 2.2168 3.21191 1.76562 3.97363 1.44922C4.74121 1.12695 5.62012 0.96582 6.61035 0.96582C7.26074 0.96582 7.8877 1.03027 8.49121 1.15918C9.09473 1.28809 9.63965 1.47266 10.126 1.71289L9.52832 2.97852C9.11816 2.79102 8.66699 2.62988 8.1748 2.49512C7.68848 2.35449 7.16113 2.28418 6.59277 2.28418ZM20.5234 9.16602C20.5234 9.95703 20.4209 10.6631 20.2158 11.2842C20.0107 11.9053 19.7148 12.4297 19.3281 12.8574C18.9414 13.2852 18.4727 13.6133 17.9219 13.8418C17.377 14.0645 16.7588 14.1758 16.0674 14.1758C15.4229 14.1758 14.8311 14.0645 14.292 13.8418C13.7588 13.6133 13.2959 13.2852 12.9033 12.8574C12.5166 12.4297 12.2148 11.9053 11.998 11.2842C11.7871 10.6631 11.6816 9.95703 11.6816 9.16602C11.6816 8.11133 11.8604 7.21484 12.2178 6.47656C12.5752 5.73242 13.085 5.16699 13.7471 4.78027C14.415 4.3877 15.209 4.19141 16.1289 4.19141C17.0078 4.19141 17.7754 4.3877 18.4316 4.78027C19.0938 5.17285 19.6064 5.74121 19.9697 6.48535C20.3389 7.22363 20.5234 8.11719 20.5234 9.16602ZM13.1934 9.16602C13.1934 9.93945 13.2959 10.6104 13.501 11.1787C13.7061 11.7471 14.0225 12.1865 14.4502 12.4971C14.8779 12.8076 15.4287 12.9629 16.1025 12.9629C16.7705 12.9629 17.3184 12.8076 17.7461 12.4971C18.1797 12.1865 18.499 11.7471 18.7041 11.1787C18.9092 10.6104 19.0117 9.93945 19.0117 9.16602C19.0117 8.39844 18.9092 7.73633 18.7041 7.17969C18.499 6.61719 18.1826 6.18359 17.7549 5.87891C17.3271 5.57422 16.7734 5.42188 16.0938 5.42188C15.0918 5.42188 14.3564 5.75293 13.8877 6.41504C13.4248 7.07715 13.1934 7.99414 13.1934 9.16602ZM27.5723 4.19141C28.7734 4.19141 29.7314 4.60449 30.4463 5.43066C31.1611 6.25684 31.5186 7.49902 31.5186 9.15723C31.5186 10.2529 31.3545 11.1729 31.0264 11.917C30.6982 12.6611 30.2354 13.2236 29.6377 13.6045C29.0459 13.9854 28.3457 14.1758 27.5371 14.1758C27.0273 14.1758 26.5791 14.1084 26.1924 13.9736C25.8057 13.8389 25.4746 13.6572 25.1992 13.4287C24.9238 13.2002 24.6953 12.9512 24.5137 12.6816H24.4082C24.4258 12.9102 24.4463 13.1855 24.4697 13.5078C24.499 13.8301 24.5137 14.1113 24.5137 14.3516V18.3066H23.0459V4.36719H24.25L24.4434 5.79102H24.5137C24.7012 5.49805 24.9297 5.23145 25.1992 4.99121C25.4688 4.74512 25.7969 4.55176 26.1836 4.41113C26.5762 4.26465 27.0391 4.19141 27.5723 4.19141ZM27.3174 5.42188C26.6494 5.42188 26.1104 5.55078 25.7002 5.80859C25.2959 6.06641 25 6.45312 24.8125 6.96875C24.625 7.47852 24.5254 8.12012 24.5137 8.89355V9.1748C24.5137 9.98926 24.6016 10.6777 24.7773 11.2402C24.959 11.8027 25.2549 12.2305 25.665 12.5234C26.0811 12.8164 26.6377 12.9629 27.335 12.9629C27.9326 12.9629 28.4307 12.8018 28.8291 12.4795C29.2275 12.1572 29.5234 11.709 29.7168 11.1348C29.916 10.5547 30.0156 9.88965 30.0156 9.13965C30.0156 8.00293 29.793 7.10059 29.3477 6.43262C28.9082 5.75879 28.2314 5.42188 27.3174 5.42188ZM32.5469 4.36719H34.1113L36.2383 9.95703C36.3613 10.2852 36.4756 10.6016 36.5811 10.9062C36.6865 11.2051 36.7803 11.4922 36.8623 11.7676C36.9443 12.043 37.0088 12.3096 37.0557 12.5674H37.1172C37.1992 12.2744 37.3164 11.8906 37.4688 11.416C37.6211 10.9355 37.7852 10.4463 37.9609 9.94824L39.9736 4.36719H41.5469L37.3545 15.415C37.1318 16.0068 36.8711 16.5225 36.5723 16.9619C36.2793 17.4014 35.9219 17.7383 35.5 17.9727C35.0781 18.2129 34.5684 18.333 33.9707 18.333C33.6953 18.333 33.4521 18.3154 33.2412 18.2803C33.0303 18.251 32.8486 18.2158 32.6963 18.1748V17.0059C32.8252 17.0352 32.9805 17.0615 33.1621 17.085C33.3496 17.1084 33.543 17.1201 33.7422 17.1201C34.1055 17.1201 34.4189 17.0498 34.6826 16.9092C34.9521 16.7744 35.1836 16.5752 35.377 16.3115C35.5703 16.0479 35.7373 15.7344 35.8779 15.3711L36.4053 14.0176L32.5469 4.36719ZM47.4619 4.19141C47.6553 4.19141 47.8574 4.20312 48.0684 4.22656C48.2793 4.24414 48.4668 4.27051 48.6309 4.30566L48.4463 5.65918C48.2881 5.61816 48.1123 5.58594 47.9189 5.5625C47.7256 5.53906 47.5439 5.52734 47.374 5.52734C46.9873 5.52734 46.6211 5.60645 46.2754 5.76465C45.9355 5.91699 45.6367 6.13965 45.3789 6.43262C45.1211 6.71973 44.9189 7.06836 44.7725 7.47852C44.626 7.88281 44.5527 8.33398 44.5527 8.83203V14H43.085V4.36719H44.2979L44.4561 6.14258H44.5176C44.7168 5.78516 44.957 5.45996 45.2383 5.16699C45.5195 4.86816 45.8447 4.63086 46.2139 4.45508C46.5889 4.2793 47.0049 4.19141 47.4619 4.19141ZM51.9092 4.36719V14H50.4502V4.36719H51.9092ZM51.1973 0.763672C51.4375 0.763672 51.6426 0.842773 51.8125 1.00098C51.9883 1.15332 52.0762 1.39355 52.0762 1.72168C52.0762 2.04395 51.9883 2.28418 51.8125 2.44238C51.6426 2.60059 51.4375 2.67969 51.1973 2.67969C50.9453 2.67969 50.7344 2.60059 50.5645 2.44238C50.4004 2.28418 50.3184 2.04395 50.3184 1.72168C50.3184 1.39355 50.4004 1.15332 50.5645 1.00098C50.7344 0.842773 50.9453 0.763672 51.1973 0.763672ZM57.6924 18.3242C56.4268 18.3242 55.4512 18.0869 54.7656 17.6123C54.0801 17.1436 53.7373 16.4844 53.7373 15.6348C53.7373 15.0312 53.9277 14.5156 54.3086 14.0879C54.6953 13.6602 55.2285 13.376 55.9082 13.2354C55.6562 13.1182 55.4395 12.9424 55.2578 12.708C55.082 12.4736 54.9941 12.2041 54.9941 11.8994C54.9941 11.5479 55.0908 11.2402 55.2842 10.9766C55.4834 10.707 55.7852 10.4492 56.1895 10.2031C55.6855 9.99805 55.2754 9.65234 54.959 9.16602C54.6484 8.67383 54.4932 8.10254 54.4932 7.45215C54.4932 6.76074 54.6367 6.17188 54.9238 5.68555C55.2109 5.19336 55.627 4.81836 56.1719 4.56055C56.7168 4.30273 57.376 4.17383 58.1494 4.17383C58.3193 4.17383 58.4893 4.18262 58.6592 4.2002C58.835 4.21191 59.002 4.23242 59.1602 4.26172C59.3184 4.28516 59.4561 4.31445 59.5732 4.34961H62.8779V5.29004L61.1025 5.50977C61.2783 5.73828 61.4248 6.01367 61.542 6.33594C61.6592 6.6582 61.7178 7.01562 61.7178 7.4082C61.7178 8.36914 61.3926 9.13379 60.7422 9.70215C60.0918 10.2646 59.1982 10.5459 58.0615 10.5459C57.792 10.5459 57.5166 10.5225 57.2354 10.4756C56.9482 10.6338 56.7285 10.8096 56.5762 11.0029C56.4297 11.1963 56.3564 11.4189 56.3564 11.6709C56.3564 11.8584 56.4121 12.0078 56.5234 12.1191C56.6406 12.2305 56.8076 12.3125 57.0244 12.3652C57.2412 12.4121 57.502 12.4355 57.8066 12.4355H59.5029C60.5518 12.4355 61.3545 12.6553 61.9111 13.0947C62.4736 13.5342 62.7549 14.1758 62.7549 15.0195C62.7549 16.0859 62.3213 16.9033 61.4541 17.4717C60.5869 18.04 59.333 18.3242 57.6924 18.3242ZM57.7363 17.1816C58.5332 17.1816 59.1924 17.0996 59.7139 16.9355C60.2412 16.7773 60.6338 16.5459 60.8916 16.2412C61.1553 15.9424 61.2871 15.585 61.2871 15.1689C61.2871 14.7822 61.1992 14.4893 61.0234 14.29C60.8477 14.0967 60.5898 13.9678 60.25 13.9033C59.9102 13.833 59.4941 13.7979 59.002 13.7979H57.332C56.8984 13.7979 56.5205 13.8652 56.1982 14C55.876 14.1348 55.627 14.334 55.4512 14.5977C55.2812 14.8613 55.1963 15.1895 55.1963 15.582C55.1963 16.1035 55.416 16.499 55.8555 16.7686C56.2949 17.0439 56.9219 17.1816 57.7363 17.1816ZM58.1143 9.48242C58.8115 9.48242 59.3359 9.30664 59.6875 8.95508C60.0391 8.60352 60.2148 8.09082 60.2148 7.41699C60.2148 6.69629 60.0361 6.15723 59.6787 5.7998C59.3213 5.43652 58.7939 5.25488 58.0967 5.25488C57.4287 5.25488 56.9131 5.44238 56.5498 5.81738C56.1924 6.18652 56.0137 6.72852 56.0137 7.44336C56.0137 8.09961 56.1953 8.60352 56.5586 8.95508C56.9219 9.30664 57.4404 9.48242 58.1143 9.48242ZM66.2354 0.324219V4.41113C66.2354 4.64551 66.2295 4.88281 66.2178 5.12305C66.2061 5.35742 66.1855 5.57422 66.1562 5.77344H66.2529C66.4521 5.43359 66.7041 5.14941 67.0088 4.9209C67.3193 4.68652 67.6709 4.51074 68.0635 4.39355C68.4561 4.27051 68.8721 4.20898 69.3115 4.20898C70.085 4.20898 70.7295 4.33203 71.2451 4.57812C71.7666 4.82422 72.1562 5.20508 72.4141 5.7207C72.6777 6.23633 72.8096 6.9043 72.8096 7.72461V14H71.3682V7.82129C71.3682 7.01855 71.1836 6.41797 70.8145 6.01953C70.4512 5.62109 69.8916 5.42188 69.1357 5.42188C68.4209 5.42188 67.8496 5.55957 67.4219 5.83496C67 6.10449 66.6953 6.50293 66.5078 7.03027C66.3262 7.55762 66.2354 8.20215 66.2354 8.96387V14H64.7764V0.324219H66.2354ZM78.9268 12.9805C79.167 12.9805 79.4131 12.96 79.665 12.9189C79.917 12.8779 80.1221 12.8281 80.2803 12.7695V13.9033C80.1104 13.9795 79.873 14.0439 79.5684 14.0967C79.2695 14.1494 78.9766 14.1758 78.6895 14.1758C78.1797 14.1758 77.7168 14.0879 77.3008 13.9121C76.8848 13.7305 76.5508 13.4258 76.2988 12.998C76.0527 12.5703 75.9297 11.9785 75.9297 11.2227V5.50977H74.5586V4.79785L75.9385 4.22656L76.5186 2.13477H77.3975V4.36719H80.2188V5.50977H77.3975V11.1787C77.3975 11.7822 77.5352 12.2334 77.8105 12.5322C78.0918 12.8311 78.4639 12.9805 78.9268 12.9805ZM92.8574 14.1758C91.9023 14.1758 91.0205 14.0117 90.2119 13.6836C89.4092 13.3555 88.709 12.8955 88.1113 12.3037C87.5195 11.7119 87.0596 11.0146 86.7314 10.2119C86.4092 9.40332 86.248 8.52441 86.248 7.5752C86.248 6.62012 86.4121 5.74121 86.7402 4.93848C87.0684 4.12988 87.5283 3.42969 88.1201 2.83789C88.7178 2.24609 89.418 1.78613 90.2207 1.45801C91.0293 1.12988 91.9082 0.96582 92.8574 0.96582C93.7773 0.96582 94.6357 1.13281 95.4326 1.4668C96.2354 1.79492 96.9385 2.25781 97.542 2.85547C98.1455 3.44727 98.6172 4.14453 98.957 4.94727C99.2969 5.75 99.4668 6.62598 99.4668 7.5752C99.4668 8.52441 99.3027 9.40332 98.9746 10.2119C98.6465 11.0146 98.1836 11.7119 97.5859 12.3037C96.9941 12.8955 96.2939 13.3555 95.4854 13.6836C94.6826 14.0117 93.8066 14.1758 92.8574 14.1758ZM93.1387 11.5918C91.9551 11.5918 91.0645 11.2285 90.4668 10.502C89.8691 9.76953 89.5703 8.79395 89.5703 7.5752C89.5703 6.7959 89.7109 6.10742 89.9922 5.50977C90.2793 4.90625 90.6924 4.43457 91.2314 4.09473C91.7764 3.74902 92.4355 3.57617 93.209 3.57617C93.5957 3.57617 93.9795 3.62305 94.3604 3.7168C94.7412 3.81055 95.0986 3.94238 95.4326 4.1123L94.9404 5.13184C94.6475 4.97949 94.3574 4.86523 94.0703 4.78906C93.7832 4.70703 93.502 4.66602 93.2266 4.66602C92.4824 4.66602 91.9053 4.92676 91.4951 5.44824C91.085 5.96387 90.8799 6.67285 90.8799 7.5752C90.8799 8.5127 91.0645 9.2334 91.4336 9.7373C91.8086 10.2412 92.3975 10.4932 93.2002 10.4932C93.4932 10.4932 93.8066 10.4551 94.1406 10.3789C94.4805 10.3027 94.8027 10.2031 95.1074 10.0801V11.1523C94.8203 11.2812 94.5244 11.3867 94.2197 11.4688C93.915 11.5508 93.5547 11.5918 93.1387 11.5918ZM92.8574 13.2793C93.6367 13.2793 94.3662 13.1387 95.0459 12.8574C95.7314 12.5762 96.332 12.1807 96.8477 11.6709C97.3633 11.1553 97.7676 10.5518 98.0605 9.86035C98.3535 9.16309 98.5 8.40137 98.5 7.5752C98.5 6.79004 98.3594 6.05469 98.0781 5.36914C97.8027 4.68359 97.4131 4.07715 96.9092 3.5498C96.4053 3.02246 95.8076 2.6123 95.1162 2.31934C94.4307 2.02051 93.6777 1.87109 92.8574 1.87109C92.0371 1.87109 91.2812 2.01172 90.5898 2.29297C89.9043 2.57422 89.3066 2.97266 88.7969 3.48828C88.293 3.99805 87.9004 4.60156 87.6191 5.29883C87.3438 5.99023 87.2061 6.74902 87.2061 7.5752C87.2061 8.36035 87.3438 9.09863 87.6191 9.79004C87.8945 10.4756 88.2842 11.082 88.7881 11.6094C89.2979 12.1309 89.8955 12.541 90.5811 12.8398C91.2725 13.1328 92.0312 13.2793 92.8574 13.2793ZM118.302 7.55762C118.302 8.54785 118.179 9.4502 117.933 10.2646C117.687 11.0732 117.312 11.7705 116.808 12.3564C116.31 12.9424 115.677 13.3936 114.909 13.71C114.142 14.0205 113.233 14.1758 112.185 14.1758C111.136 14.1758 110.228 14.0205 109.46 13.71C108.692 13.3936 108.057 12.9424 107.553 12.3564C107.055 11.7705 106.683 11.0703 106.437 10.2559C106.19 9.44141 106.067 8.53613 106.067 7.54004C106.067 6.20996 106.284 5.05273 106.718 4.06836C107.157 3.07812 107.831 2.31055 108.739 1.76562C109.647 1.2207 110.802 0.948242 112.202 0.948242C113.597 0.948242 114.742 1.2207 115.639 1.76562C116.541 2.31055 117.209 3.07812 117.643 4.06836C118.082 5.05859 118.302 6.22168 118.302 7.55762ZM108.924 7.55762C108.924 8.4541 109.035 9.22754 109.258 9.87793C109.486 10.5225 109.841 11.0205 110.321 11.3721C110.802 11.7178 111.423 11.8906 112.185 11.8906C112.958 11.8906 113.585 11.7178 114.065 11.3721C114.546 11.0205 114.895 10.5225 115.111 9.87793C115.334 9.22754 115.445 8.4541 115.445 7.55762C115.445 6.20996 115.193 5.14941 114.689 4.37598C114.186 3.60254 113.356 3.21582 112.202 3.21582C111.435 3.21582 110.808 3.3916 110.321 3.74316C109.841 4.08887 109.486 4.58691 109.258 5.2373C109.035 5.88184 108.924 6.65527 108.924 7.55762ZM126.238 3.98926C126.373 3.98926 126.528 3.99805 126.704 4.01562C126.886 4.02734 127.032 4.04492 127.144 4.06836L126.941 6.58203C126.854 6.55273 126.728 6.53223 126.563 6.52051C126.405 6.50293 126.268 6.49414 126.15 6.49414C125.805 6.49414 125.468 6.53809 125.14 6.62598C124.817 6.71387 124.527 6.85742 124.27 7.05664C124.012 7.25 123.807 7.50781 123.654 7.83008C123.508 8.14648 123.435 8.53613 123.435 8.99902V14H120.754V4.17383H122.784L123.18 5.82617H123.312C123.505 5.49219 123.745 5.1875 124.032 4.91211C124.325 4.63086 124.656 4.4082 125.025 4.24414C125.4 4.07422 125.805 3.98926 126.238 3.98926ZM131.802 18.3242C130.431 18.3242 129.382 18.084 128.655 17.6035C127.935 17.1289 127.574 16.4609 127.574 15.5996C127.574 15.0078 127.759 14.5127 128.128 14.1143C128.497 13.7158 129.039 13.4316 129.754 13.2617C129.479 13.1445 129.238 12.9541 129.033 12.6904C128.828 12.4209 128.726 12.1367 128.726 11.8379C128.726 11.4629 128.834 11.1523 129.051 10.9062C129.268 10.6543 129.581 10.4082 129.991 10.168C129.476 9.94531 129.065 9.58789 128.761 9.0957C128.462 8.60352 128.312 8.02344 128.312 7.35547C128.312 6.64062 128.468 6.03418 128.778 5.53613C129.095 5.03223 129.552 4.64844 130.149 4.38477C130.753 4.12109 131.485 3.98926 132.347 3.98926C132.528 3.98926 132.739 4.00098 132.979 4.02441C133.22 4.04785 133.439 4.07422 133.639 4.10352C133.844 4.13281 133.981 4.15625 134.052 4.17383H137.479V5.53613L135.941 5.93164C136.082 6.14844 136.188 6.37988 136.258 6.62598C136.328 6.87207 136.363 7.13281 136.363 7.4082C136.363 8.46289 135.994 9.28613 135.256 9.87793C134.523 10.4639 133.504 10.7568 132.197 10.7568C131.887 10.7393 131.594 10.7158 131.318 10.6865C131.184 10.792 131.081 10.9033 131.011 11.0205C130.94 11.1377 130.905 11.2607 130.905 11.3896C130.905 11.5186 130.958 11.627 131.063 11.7148C131.175 11.7969 131.339 11.8613 131.556 11.9082C131.778 11.9492 132.054 11.9697 132.382 11.9697H134.052C135.13 11.9697 135.95 12.2012 136.513 12.6641C137.081 13.127 137.365 13.8066 137.365 14.7031C137.365 15.8516 136.885 16.7422 135.924 17.375C134.969 18.0078 133.595 18.3242 131.802 18.3242ZM131.916 16.5752C132.555 16.5752 133.103 16.5137 133.56 16.3906C134.022 16.2734 134.377 16.1035 134.623 15.8809C134.869 15.6641 134.992 15.4033 134.992 15.0986C134.992 14.8525 134.919 14.6562 134.772 14.5098C134.632 14.3691 134.415 14.2695 134.122 14.2109C133.835 14.1523 133.466 14.123 133.015 14.123H131.626C131.298 14.123 131.002 14.1758 130.738 14.2812C130.48 14.3867 130.275 14.5332 130.123 14.7207C129.971 14.9141 129.895 15.1367 129.895 15.3887C129.895 15.7578 130.07 16.0479 130.422 16.2588C130.779 16.4697 131.277 16.5752 131.916 16.5752ZM132.347 9.12207C132.851 9.12207 133.22 8.9668 133.454 8.65625C133.688 8.3457 133.806 7.92383 133.806 7.39062C133.806 6.79883 133.683 6.35645 133.437 6.06348C133.196 5.76465 132.833 5.61523 132.347 5.61523C131.854 5.61523 131.485 5.76465 131.239 6.06348C130.993 6.35645 130.87 6.79883 130.87 7.39062C130.87 7.92383 130.99 8.3457 131.23 8.65625C131.477 8.9668 131.849 9.12207 132.347 9.12207ZM143.131 3.97168C144.449 3.97168 145.46 4.25879 146.163 4.83301C146.866 5.40723 147.218 6.28027 147.218 7.45215V14H145.346L144.827 12.6641H144.757C144.476 13.0156 144.188 13.3027 143.896 13.5254C143.603 13.748 143.266 13.9121 142.885 14.0176C142.504 14.123 142.041 14.1758 141.496 14.1758C140.916 14.1758 140.395 14.0645 139.932 13.8418C139.475 13.6191 139.114 13.2793 138.851 12.8223C138.587 12.3594 138.455 11.7734 138.455 11.0645C138.455 10.0215 138.821 9.25391 139.554 8.76172C140.286 8.26367 141.385 7.98828 142.85 7.93555L144.555 7.88281V7.45215C144.555 6.93652 144.42 6.55859 144.15 6.31836C143.881 6.07812 143.506 5.95801 143.025 5.95801C142.551 5.95801 142.085 6.02539 141.628 6.16016C141.171 6.29492 140.714 6.46484 140.257 6.66992L139.369 4.85938C139.891 4.58398 140.474 4.36719 141.118 4.20898C141.769 4.05078 142.439 3.97168 143.131 3.97168ZM144.555 9.44727L143.518 9.48242C142.65 9.50586 142.047 9.66113 141.707 9.94824C141.373 10.2354 141.206 10.6133 141.206 11.082C141.206 11.4922 141.326 11.7852 141.566 11.9609C141.807 12.1309 142.12 12.2158 142.507 12.2158C143.081 12.2158 143.564 12.0459 143.957 11.7061C144.355 11.3662 144.555 10.8828 144.555 10.2559V9.44727ZM155.567 3.98926C156.616 3.98926 157.46 4.27637 158.099 4.85059C158.737 5.41895 159.057 6.33301 159.057 7.59277V14H156.376V8.26074C156.376 7.55762 156.247 7.02734 155.989 6.66992C155.737 6.3125 155.339 6.13379 154.794 6.13379C153.974 6.13379 153.414 6.41211 153.115 6.96875C152.816 7.52539 152.667 8.32812 152.667 9.37695V14H149.986V4.17383H152.034L152.395 5.43066H152.544C152.755 5.09082 153.016 4.81543 153.326 4.60449C153.643 4.39355 153.991 4.23828 154.372 4.13867C154.759 4.03906 155.157 3.98926 155.567 3.98926ZM164.497 4.17383V14H161.816V4.17383H164.497ZM163.161 0.324219C163.56 0.324219 163.902 0.417969 164.189 0.605469C164.477 0.787109 164.62 1.12988 164.62 1.63379C164.62 2.13184 164.477 2.47754 164.189 2.6709C163.902 2.8584 163.56 2.95215 163.161 2.95215C162.757 2.95215 162.411 2.8584 162.124 2.6709C161.843 2.47754 161.702 2.13184 161.702 1.63379C161.702 1.12988 161.843 0.787109 162.124 0.605469C162.411 0.417969 162.757 0.324219 163.161 0.324219ZM171.309 14.1758C170.336 14.1758 169.507 14 168.821 13.6484C168.136 13.291 167.614 12.7402 167.257 11.9961C166.899 11.252 166.721 10.2998 166.721 9.13965C166.721 7.93848 166.923 6.95996 167.327 6.2041C167.737 5.44238 168.303 4.88281 169.023 4.52539C169.75 4.16797 170.591 3.98926 171.546 3.98926C172.226 3.98926 172.812 4.05664 173.304 4.19141C173.802 4.32031 174.235 4.47559 174.604 4.65723L173.813 6.73145C173.392 6.56152 172.999 6.42383 172.636 6.31836C172.272 6.20703 171.909 6.15137 171.546 6.15137C171.077 6.15137 170.688 6.2627 170.377 6.48535C170.066 6.70215 169.835 7.03027 169.683 7.46973C169.53 7.90918 169.454 8.45996 169.454 9.12207C169.454 9.77246 169.536 10.3115 169.7 10.7393C169.864 11.167 170.102 11.4863 170.412 11.6973C170.723 11.9023 171.101 12.0049 171.546 12.0049C172.103 12.0049 172.598 11.9316 173.031 11.7852C173.465 11.6328 173.887 11.4219 174.297 11.1523V13.4463C173.887 13.7041 173.456 13.8887 173.005 14C172.56 14.1172 171.994 14.1758 171.309 14.1758ZM179.263 0.324219V6.44141C179.263 6.81055 179.248 7.17969 179.219 7.54883C179.189 7.91797 179.157 8.28711 179.122 8.65625H179.157C179.339 8.39844 179.523 8.14355 179.711 7.8916C179.904 7.63965 180.109 7.39648 180.326 7.16211L183.077 4.17383H186.101L182.198 8.43652L186.338 14H183.244L180.414 10.0186L179.263 10.9414V14H176.582V0.324219H179.263ZM195.338 0.31543H196.56V18.3594H195.338V0.31543ZM217.548 7.45215C217.548 8.89941 217.284 10.1094 216.757 11.082C216.229 12.0488 215.465 12.7783 214.463 13.2705C213.467 13.7568 212.257 14 210.833 14H207.344V1.15039H211.22C212.526 1.15039 213.651 1.39062 214.595 1.87109C215.538 2.3457 216.265 3.05176 216.774 3.98926C217.29 4.9209 217.548 6.0752 217.548 7.45215ZM215.975 7.50488C215.975 6.35059 215.781 5.39844 215.395 4.64844C215.014 3.89844 214.451 3.3418 213.707 2.97852C212.969 2.60938 212.063 2.4248 210.991 2.4248H208.838V12.7168H210.657C212.427 12.7168 213.754 12.2803 214.639 11.4072C215.529 10.5342 215.975 9.2334 215.975 7.50488ZM223.894 4.19141C224.714 4.19141 225.417 4.37305 226.003 4.73633C226.589 5.09961 227.037 5.60938 227.348 6.26562C227.658 6.91602 227.813 7.67773 227.813 8.55078V9.45605H221.16C221.178 10.5869 221.459 11.4482 222.004 12.04C222.549 12.6318 223.316 12.9277 224.307 12.9277C224.916 12.9277 225.455 12.8721 225.924 12.7607C226.393 12.6494 226.879 12.4854 227.383 12.2686V13.5518C226.896 13.7686 226.413 13.9268 225.933 14.0264C225.458 14.126 224.896 14.1758 224.245 14.1758C223.319 14.1758 222.511 13.9883 221.819 13.6133C221.134 13.2324 220.601 12.6758 220.22 11.9434C219.839 11.2109 219.648 10.3145 219.648 9.25391C219.648 8.2168 219.821 7.32031 220.167 6.56445C220.519 5.80273 221.011 5.2168 221.644 4.80664C222.282 4.39648 223.032 4.19141 223.894 4.19141ZM223.876 5.38672C223.097 5.38672 222.476 5.6416 222.013 6.15137C221.55 6.66113 221.274 7.37305 221.187 8.28711H226.284C226.278 7.71289 226.188 7.20898 226.012 6.77539C225.842 6.33594 225.581 5.99609 225.229 5.75586C224.878 5.50977 224.427 5.38672 223.876 5.38672ZM236.523 11.3633C236.523 11.9785 236.368 12.4971 236.058 12.9189C235.753 13.335 235.313 13.6484 234.739 13.8594C234.171 14.0703 233.491 14.1758 232.7 14.1758C232.026 14.1758 231.443 14.123 230.951 14.0176C230.459 13.9121 230.028 13.7627 229.659 13.5693V12.2246C230.052 12.418 230.521 12.5938 231.065 12.752C231.61 12.9102 232.167 12.9893 232.735 12.9893C233.567 12.9893 234.171 12.8545 234.546 12.585C234.921 12.3154 235.108 11.9492 235.108 11.4863C235.108 11.2227 235.032 10.9912 234.88 10.792C234.733 10.5869 234.484 10.3906 234.133 10.2031C233.781 10.0098 233.295 9.79883 232.674 9.57031C232.059 9.33594 231.525 9.10449 231.074 8.87598C230.629 8.6416 230.283 8.35742 230.037 8.02344C229.797 7.68945 229.677 7.25586 229.677 6.72266C229.677 5.9082 230.005 5.28418 230.661 4.85059C231.323 4.41113 232.19 4.19141 233.263 4.19141C233.843 4.19141 234.385 4.25 234.889 4.36719C235.398 4.47852 235.873 4.63086 236.312 4.82422L235.82 5.99316C235.422 5.82324 234.997 5.67969 234.546 5.5625C234.095 5.44531 233.635 5.38672 233.166 5.38672C232.492 5.38672 231.974 5.49805 231.61 5.7207C231.253 5.94336 231.074 6.24805 231.074 6.63477C231.074 6.93359 231.156 7.17969 231.32 7.37305C231.49 7.56641 231.76 7.74805 232.129 7.91797C232.498 8.08789 232.984 8.28711 233.588 8.51562C234.191 8.73828 234.713 8.96973 235.152 9.20996C235.592 9.44434 235.929 9.73145 236.163 10.0713C236.403 10.4053 236.523 10.8359 236.523 11.3633ZM240.329 4.36719V14H238.87V4.36719H240.329ZM239.617 0.763672C239.857 0.763672 240.062 0.842773 240.232 1.00098C240.408 1.15332 240.496 1.39355 240.496 1.72168C240.496 2.04395 240.408 2.28418 240.232 2.44238C240.062 2.60059 239.857 2.67969 239.617 2.67969C239.365 2.67969 239.154 2.60059 238.984 2.44238C238.82 2.28418 238.738 2.04395 238.738 1.72168C238.738 1.39355 238.82 1.15332 238.984 1.00098C239.154 0.842773 239.365 0.763672 239.617 0.763672ZM246.112 18.3242C244.847 18.3242 243.871 18.0869 243.186 17.6123C242.5 17.1436 242.157 16.4844 242.157 15.6348C242.157 15.0312 242.348 14.5156 242.729 14.0879C243.115 13.6602 243.648 13.376 244.328 13.2354C244.076 13.1182 243.859 12.9424 243.678 12.708C243.502 12.4736 243.414 12.2041 243.414 11.8994C243.414 11.5479 243.511 11.2402 243.704 10.9766C243.903 10.707 244.205 10.4492 244.609 10.2031C244.105 9.99805 243.695 9.65234 243.379 9.16602C243.068 8.67383 242.913 8.10254 242.913 7.45215C242.913 6.76074 243.057 6.17188 243.344 5.68555C243.631 5.19336 244.047 4.81836 244.592 4.56055C245.137 4.30273 245.796 4.17383 246.569 4.17383C246.739 4.17383 246.909 4.18262 247.079 4.2002C247.255 4.21191 247.422 4.23242 247.58 4.26172C247.738 4.28516 247.876 4.31445 247.993 4.34961H251.298V5.29004L249.522 5.50977C249.698 5.73828 249.845 6.01367 249.962 6.33594C250.079 6.6582 250.138 7.01562 250.138 7.4082C250.138 8.36914 249.812 9.13379 249.162 9.70215C248.512 10.2646 247.618 10.5459 246.481 10.5459C246.212 10.5459 245.937 10.5225 245.655 10.4756C245.368 10.6338 245.148 10.8096 244.996 11.0029C244.85 11.1963 244.776 11.4189 244.776 11.6709C244.776 11.8584 244.832 12.0078 244.943 12.1191C245.061 12.2305 245.228 12.3125 245.444 12.3652C245.661 12.4121 245.922 12.4355 246.227 12.4355H247.923C248.972 12.4355 249.774 12.6553 250.331 13.0947C250.894 13.5342 251.175 14.1758 251.175 15.0195C251.175 16.0859 250.741 16.9033 249.874 17.4717C249.007 18.04 247.753 18.3242 246.112 18.3242ZM246.156 17.1816C246.953 17.1816 247.612 17.0996 248.134 16.9355C248.661 16.7773 249.054 16.5459 249.312 16.2412C249.575 15.9424 249.707 15.585 249.707 15.1689C249.707 14.7822 249.619 14.4893 249.443 14.29C249.268 14.0967 249.01 13.9678 248.67 13.9033C248.33 13.833 247.914 13.7979 247.422 13.7979H245.752C245.318 13.7979 244.94 13.8652 244.618 14C244.296 14.1348 244.047 14.334 243.871 14.5977C243.701 14.8613 243.616 15.1895 243.616 15.582C243.616 16.1035 243.836 16.499 244.275 16.7686C244.715 17.0439 245.342 17.1816 246.156 17.1816ZM246.534 9.48242C247.231 9.48242 247.756 9.30664 248.107 8.95508C248.459 8.60352 248.635 8.09082 248.635 7.41699C248.635 6.69629 248.456 6.15723 248.099 5.7998C247.741 5.43652 247.214 5.25488 246.517 5.25488C245.849 5.25488 245.333 5.44238 244.97 5.81738C244.612 6.18652 244.434 6.72852 244.434 7.44336C244.434 8.09961 244.615 8.60352 244.979 8.95508C245.342 9.30664 245.86 9.48242 246.534 9.48242ZM257.758 4.19141C258.9 4.19141 259.765 4.47266 260.351 5.03516C260.937 5.5918 261.229 6.48828 261.229 7.72461V14H259.788V7.82129C259.788 7.01855 259.604 6.41797 259.234 6.01953C258.871 5.62109 258.312 5.42188 257.556 5.42188C256.489 5.42188 255.739 5.72363 255.306 6.32715C254.872 6.93066 254.655 7.80664 254.655 8.95508V14H253.196V4.36719H254.374L254.594 5.75586H254.673C254.878 5.41602 255.139 5.13184 255.455 4.90332C255.771 4.66895 256.126 4.49316 256.519 4.37598C256.911 4.25293 257.324 4.19141 257.758 4.19141ZM267.944 4.19141C268.765 4.19141 269.468 4.37305 270.054 4.73633C270.64 5.09961 271.088 5.60938 271.398 6.26562C271.709 6.91602 271.864 7.67773 271.864 8.55078V9.45605H265.211C265.229 10.5869 265.51 11.4482 266.055 12.04C266.6 12.6318 267.367 12.9277 268.357 12.9277C268.967 12.9277 269.506 12.8721 269.975 12.7607C270.443 12.6494 270.93 12.4854 271.434 12.2686V13.5518C270.947 13.7686 270.464 13.9268 269.983 14.0264C269.509 14.126 268.946 14.1758 268.296 14.1758C267.37 14.1758 266.562 13.9883 265.87 13.6133C265.185 13.2324 264.651 12.6758 264.271 11.9434C263.89 11.2109 263.699 10.3145 263.699 9.25391C263.699 8.2168 263.872 7.32031 264.218 6.56445C264.569 5.80273 265.062 5.2168 265.694 4.80664C266.333 4.39648 267.083 4.19141 267.944 4.19141ZM267.927 5.38672C267.147 5.38672 266.526 5.6416 266.063 6.15137C265.601 6.66113 265.325 7.37305 265.237 8.28711H270.335C270.329 7.71289 270.238 7.20898 270.062 6.77539C269.893 6.33594 269.632 5.99609 269.28 5.75586C268.929 5.50977 268.478 5.38672 267.927 5.38672ZM277.771 14.1758C276.552 14.1758 275.585 13.7598 274.87 12.9277C274.161 12.0957 273.807 10.8594 273.807 9.21875C273.807 7.56055 274.17 6.30957 274.896 5.46582C275.623 4.61621 276.59 4.19141 277.797 4.19141C278.307 4.19141 278.752 4.25879 279.133 4.39355C279.514 4.52832 279.842 4.70996 280.117 4.93848C280.393 5.16113 280.624 5.41602 280.812 5.70312H280.917C280.894 5.52148 280.87 5.27246 280.847 4.95605C280.823 4.63965 280.812 4.38184 280.812 4.18262V0.324219H282.271V14H281.093L280.873 12.6289H280.812C280.63 12.916 280.398 13.1768 280.117 13.4111C279.842 13.6455 279.511 13.833 279.124 13.9736C278.743 14.1084 278.292 14.1758 277.771 14.1758ZM277.999 12.9629C279.03 12.9629 279.76 12.6699 280.188 12.084C280.615 11.498 280.829 10.6279 280.829 9.47363V9.20996C280.829 7.98535 280.624 7.04492 280.214 6.38867C279.81 5.73242 279.071 5.4043 277.999 5.4043C277.103 5.4043 276.432 5.75 275.986 6.44141C275.541 7.12695 275.318 8.06445 275.318 9.25391C275.318 10.4375 275.538 11.3516 275.978 11.9961C276.423 12.6406 277.097 12.9629 277.999 12.9629ZM291.499 0.324219V3.74316C291.499 4.13574 291.487 4.5166 291.464 4.88574C291.446 5.25488 291.432 5.54199 291.42 5.74707H291.499C291.763 5.31348 292.144 4.94727 292.642 4.64844C293.14 4.34961 293.775 4.2002 294.549 4.2002C295.756 4.2002 296.717 4.61914 297.432 5.45703C298.152 6.28906 298.513 7.52832 298.513 9.1748C298.513 10.2588 298.349 11.1729 298.021 11.917C297.692 12.6611 297.229 13.2236 296.632 13.6045C296.034 13.9854 295.328 14.1758 294.514 14.1758C293.752 14.1758 293.125 14.0352 292.633 13.7539C292.146 13.4668 291.771 13.1182 291.508 12.708H291.394L291.095 14H290.04V0.324219H291.499ZM294.312 5.42188C293.614 5.42188 293.061 5.55957 292.65 5.83496C292.24 6.10449 291.944 6.51465 291.763 7.06543C291.587 7.61035 291.499 8.30176 291.499 9.13965V9.21875C291.499 10.4316 291.701 11.3604 292.105 12.0049C292.51 12.6436 293.245 12.9629 294.312 12.9629C295.208 12.9629 295.879 12.6348 296.324 11.9785C296.775 11.3223 297.001 10.3848 297.001 9.16602C297.001 7.92383 296.778 6.98926 296.333 6.3623C295.894 5.73535 295.22 5.42188 294.312 5.42188ZM299.541 4.36719H301.105L303.232 9.95703C303.355 10.2852 303.47 10.6016 303.575 10.9062C303.681 11.2051 303.774 11.4922 303.856 11.7676C303.938 12.043 304.003 12.3096 304.05 12.5674H304.111C304.193 12.2744 304.311 11.8906 304.463 11.416C304.615 10.9355 304.779 10.4463 304.955 9.94824L306.968 4.36719H308.541L304.349 15.415C304.126 16.0068 303.865 16.5225 303.566 16.9619C303.273 17.4014 302.916 17.7383 302.494 17.9727C302.072 18.2129 301.562 18.333 300.965 18.333C300.689 18.333 300.446 18.3154 300.235 18.2803C300.024 18.251 299.843 18.2158 299.69 18.1748V17.0059C299.819 17.0352 299.975 17.0615 300.156 17.085C300.344 17.1084 300.537 17.1201 300.736 17.1201C301.1 17.1201 301.413 17.0498 301.677 16.9092C301.946 16.7744 302.178 16.5752 302.371 16.3115C302.564 16.0479 302.731 15.7344 302.872 15.3711L303.399 14.0176L299.541 4.36719ZM324.915 1.15039L320.547 14H317.576L313.217 1.15039H315.968L318.385 8.79688C318.426 8.92578 318.493 9.16895 318.587 9.52637C318.681 9.87793 318.774 10.2529 318.868 10.6514C318.968 11.0439 319.035 11.3691 319.07 11.627C319.105 11.3691 319.167 11.0439 319.255 10.6514C319.349 10.2588 319.439 9.88672 319.527 9.53516C319.621 9.17773 319.688 8.93164 319.729 8.79688L322.164 1.15039H324.915ZM329.011 4.17383V14H326.33V4.17383H329.011ZM327.675 0.324219C328.073 0.324219 328.416 0.417969 328.703 0.605469C328.99 0.787109 329.134 1.12988 329.134 1.63379C329.134 2.13184 328.99 2.47754 328.703 2.6709C328.416 2.8584 328.073 2.95215 327.675 2.95215C327.271 2.95215 326.925 2.8584 326.638 2.6709C326.356 2.47754 326.216 2.13184 326.216 1.63379C326.216 1.12988 326.356 0.787109 326.638 0.605469C326.925 0.417969 327.271 0.324219 327.675 0.324219ZM335.822 14.1758C334.85 14.1758 334.021 14 333.335 13.6484C332.649 13.291 332.128 12.7402 331.771 11.9961C331.413 11.252 331.234 10.2998 331.234 9.13965C331.234 7.93848 331.437 6.95996 331.841 6.2041C332.251 5.44238 332.816 4.88281 333.537 4.52539C334.264 4.16797 335.104 3.98926 336.06 3.98926C336.739 3.98926 337.325 4.05664 337.817 4.19141C338.315 4.32031 338.749 4.47559 339.118 4.65723L338.327 6.73145C337.905 6.56152 337.513 6.42383 337.149 6.31836C336.786 6.20703 336.423 6.15137 336.06 6.15137C335.591 6.15137 335.201 6.2627 334.891 6.48535C334.58 6.70215 334.349 7.03027 334.196 7.46973C334.044 7.90918 333.968 8.45996 333.968 9.12207C333.968 9.77246 334.05 10.3115 334.214 10.7393C334.378 11.167 334.615 11.4863 334.926 11.6973C335.236 11.9023 335.614 12.0049 336.06 12.0049C336.616 12.0049 337.111 11.9316 337.545 11.7852C337.979 11.6328 338.4 11.4219 338.811 11.1523V13.4463C338.4 13.7041 337.97 13.8887 337.519 14C337.073 14.1172 336.508 14.1758 335.822 14.1758ZM345.235 12.04C345.528 12.04 345.812 12.0107 346.088 11.9521C346.369 11.8936 346.647 11.8203 346.923 11.7324V13.7275C346.636 13.8564 346.278 13.9619 345.851 14.0439C345.429 14.1318 344.966 14.1758 344.462 14.1758C343.876 14.1758 343.349 14.082 342.88 13.8945C342.417 13.7012 342.051 13.3701 341.781 12.9014C341.518 12.4268 341.386 11.7676 341.386 10.9238V6.18652H340.103V5.05273L341.579 4.15625L342.353 2.08203H344.066V4.17383H346.817V6.18652H344.066V10.9238C344.066 11.2988 344.172 11.5801 344.383 11.7676C344.6 11.9492 344.884 12.04 345.235 12.04ZM357.848 9.06934C357.848 9.88965 357.736 10.6162 357.514 11.249C357.297 11.8818 356.978 12.418 356.556 12.8574C356.14 13.291 355.636 13.6191 355.044 13.8418C354.458 14.0645 353.796 14.1758 353.058 14.1758C352.366 14.1758 351.73 14.0645 351.15 13.8418C350.576 13.6191 350.075 13.291 349.647 12.8574C349.226 12.418 348.897 11.8818 348.663 11.249C348.435 10.6162 348.32 9.88965 348.32 9.06934C348.32 7.97949 348.514 7.05664 348.9 6.30078C349.287 5.54492 349.838 4.9707 350.553 4.57812C351.268 4.18555 352.12 3.98926 353.11 3.98926C354.03 3.98926 354.845 4.18555 355.554 4.57812C356.269 4.9707 356.828 5.54492 357.232 6.30078C357.643 7.05664 357.848 7.97949 357.848 9.06934ZM351.054 9.06934C351.054 9.71387 351.124 10.2559 351.265 10.6953C351.405 11.1348 351.625 11.4658 351.924 11.6885C352.223 11.9111 352.612 12.0225 353.093 12.0225C353.567 12.0225 353.951 11.9111 354.244 11.6885C354.543 11.4658 354.76 11.1348 354.895 10.6953C355.035 10.2559 355.105 9.71387 355.105 9.06934C355.105 8.41895 355.035 7.87988 354.895 7.45215C354.76 7.01855 354.543 6.69336 354.244 6.47656C353.945 6.25977 353.556 6.15137 353.075 6.15137C352.366 6.15137 351.851 6.39453 351.528 6.88086C351.212 7.36719 351.054 8.09668 351.054 9.06934ZM365.547 3.98926C365.682 3.98926 365.837 3.99805 366.013 4.01562C366.194 4.02734 366.341 4.04492 366.452 4.06836L366.25 6.58203C366.162 6.55273 366.036 6.53223 365.872 6.52051C365.714 6.50293 365.576 6.49414 365.459 6.49414C365.113 6.49414 364.776 6.53809 364.448 6.62598C364.126 6.71387 363.836 6.85742 363.578 7.05664C363.32 7.25 363.115 7.50781 362.963 7.83008C362.816 8.14648 362.743 8.53613 362.743 8.99902V14H360.062V4.17383H362.093L362.488 5.82617H362.62C362.813 5.49219 363.054 5.1875 363.341 4.91211C363.634 4.63086 363.965 4.4082 364.334 4.24414C364.709 4.07422 365.113 3.98926 365.547 3.98926ZM371.128 14H368.447V1.15039H375.812V3.38281H371.128V6.69629H375.487V8.91992H371.128V14ZM380.796 14H378.115V0.324219H380.796V14ZM392.547 9.06934C392.547 9.88965 392.436 10.6162 392.213 11.249C391.996 11.8818 391.677 12.418 391.255 12.8574C390.839 13.291 390.335 13.6191 389.743 13.8418C389.157 14.0645 388.495 14.1758 387.757 14.1758C387.065 14.1758 386.43 14.0645 385.85 13.8418C385.275 13.6191 384.774 13.291 384.347 12.8574C383.925 12.418 383.597 11.8818 383.362 11.249C383.134 10.6162 383.02 9.88965 383.02 9.06934C383.02 7.97949 383.213 7.05664 383.6 6.30078C383.986 5.54492 384.537 4.9707 385.252 4.57812C385.967 4.18555 386.819 3.98926 387.81 3.98926C388.729 3.98926 389.544 4.18555 390.253 4.57812C390.968 4.9707 391.527 5.54492 391.932 6.30078C392.342 7.05664 392.547 7.97949 392.547 9.06934ZM385.753 9.06934C385.753 9.71387 385.823 10.2559 385.964 10.6953C386.104 11.1348 386.324 11.4658 386.623 11.6885C386.922 11.9111 387.312 12.0225 387.792 12.0225C388.267 12.0225 388.65 11.9111 388.943 11.6885C389.242 11.4658 389.459 11.1348 389.594 10.6953C389.734 10.2559 389.805 9.71387 389.805 9.06934C389.805 8.41895 389.734 7.87988 389.594 7.45215C389.459 7.01855 389.242 6.69336 388.943 6.47656C388.645 6.25977 388.255 6.15137 387.774 6.15137C387.065 6.15137 386.55 6.39453 386.228 6.88086C385.911 7.36719 385.753 8.09668 385.753 9.06934ZM402.839 14L402.083 10.5635C402.042 10.3584 401.975 10.0566 401.881 9.6582C401.787 9.25391 401.685 8.82324 401.573 8.36621C401.468 7.90332 401.368 7.47559 401.274 7.08301C401.187 6.69043 401.122 6.40332 401.081 6.22168H401.002C400.961 6.40332 400.896 6.69043 400.809 7.08301C400.721 7.47559 400.621 7.90332 400.51 8.36621C400.404 8.8291 400.305 9.26562 400.211 9.67578C400.117 10.0801 400.047 10.3877 400 10.5986L399.209 14H396.326L393.531 4.17383H396.203L397.337 8.52441C397.413 8.8291 397.486 9.19238 397.557 9.61426C397.627 10.0303 397.688 10.4346 397.741 10.8271C397.8 11.2139 397.844 11.5215 397.873 11.75H397.943C397.955 11.5801 397.979 11.3545 398.014 11.0732C398.055 10.792 398.099 10.502 398.146 10.2031C398.198 9.89844 398.245 9.62598 398.286 9.38574C398.333 9.13965 398.368 8.97266 398.392 8.88477L399.604 4.17383H402.558L403.709 8.88477C403.75 9.05469 403.803 9.32422 403.867 9.69336C403.938 10.0625 403.999 10.4434 404.052 10.8359C404.104 11.2227 404.134 11.5273 404.14 11.75H404.21C404.233 11.5508 404.274 11.2549 404.333 10.8623C404.392 10.4697 404.459 10.0596 404.535 9.63184C404.617 9.19824 404.699 8.8291 404.781 8.52441L405.959 4.17383H408.587L405.757 14H402.839ZM419.151 14H417.648V2.46875H413.605V1.15039H423.177V2.46875H419.151V14ZM428.608 4.19141C429.429 4.19141 430.132 4.37305 430.718 4.73633C431.304 5.09961 431.752 5.60938 432.062 6.26562C432.373 6.91602 432.528 7.67773 432.528 8.55078V9.45605H425.875C425.893 10.5869 426.174 11.4482 426.719 12.04C427.264 12.6318 428.031 12.9277 429.021 12.9277C429.631 12.9277 430.17 12.8721 430.639 12.7607C431.107 12.6494 431.594 12.4854 432.098 12.2686V13.5518C431.611 13.7686 431.128 13.9268 430.647 14.0264C430.173 14.126 429.61 14.1758 428.96 14.1758C428.034 14.1758 427.226 13.9883 426.534 13.6133C425.849 13.2324 425.315 12.6758 424.935 11.9434C424.554 11.2109 424.363 10.3145 424.363 9.25391C424.363 8.2168 424.536 7.32031 424.882 6.56445C425.233 5.80273 425.726 5.2168 426.358 4.80664C426.997 4.39648 427.747 4.19141 428.608 4.19141ZM428.591 5.38672C427.812 5.38672 427.19 5.6416 426.728 6.15137C426.265 6.66113 425.989 7.37305 425.901 8.28711H430.999C430.993 7.71289 430.902 7.20898 430.727 6.77539C430.557 6.33594 430.296 5.99609 429.944 5.75586C429.593 5.50977 429.142 5.38672 428.591 5.38672ZM445.466 4.19141C446.526 4.19141 447.326 4.46973 447.865 5.02637C448.404 5.57715 448.674 6.46484 448.674 7.68945V14H447.232V7.75977C447.232 6.98047 447.062 6.39746 446.723 6.01074C446.389 5.61816 445.891 5.42188 445.229 5.42188C444.297 5.42188 443.62 5.69141 443.198 6.23047C442.776 6.76953 442.565 7.56348 442.565 8.6123V14H441.115V7.75977C441.115 7.23828 441.039 6.80469 440.887 6.45898C440.74 6.11328 440.518 5.85547 440.219 5.68555C439.926 5.50977 439.554 5.42188 439.103 5.42188C438.464 5.42188 437.951 5.55371 437.564 5.81738C437.178 6.08105 436.896 6.47363 436.721 6.99512C436.551 7.51074 436.466 8.14648 436.466 8.90234V14H435.007V4.36719H436.185L436.404 5.72949H436.483C436.677 5.39551 436.92 5.11426 437.213 4.88574C437.506 4.65723 437.834 4.48438 438.197 4.36719C438.561 4.25 438.947 4.19141 439.357 4.19141C440.09 4.19141 440.702 4.3291 441.194 4.60449C441.692 4.87402 442.053 5.28711 442.275 5.84375H442.354C442.671 5.28711 443.104 4.87402 443.655 4.60449C444.206 4.3291 444.81 4.19141 445.466 4.19141ZM456.197 4.19141C457.398 4.19141 458.356 4.60449 459.071 5.43066C459.786 6.25684 460.144 7.49902 460.144 9.15723C460.144 10.2529 459.979 11.1729 459.651 11.917C459.323 12.6611 458.86 13.2236 458.263 13.6045C457.671 13.9854 456.971 14.1758 456.162 14.1758C455.652 14.1758 455.204 14.1084 454.817 13.9736C454.431 13.8389 454.1 13.6572 453.824 13.4287C453.549 13.2002 453.32 12.9512 453.139 12.6816H453.033C453.051 12.9102 453.071 13.1855 453.095 13.5078C453.124 13.8301 453.139 14.1113 453.139 14.3516V18.3066H451.671V4.36719H452.875L453.068 5.79102H453.139C453.326 5.49805 453.555 5.23145 453.824 4.99121C454.094 4.74512 454.422 4.55176 454.809 4.41113C455.201 4.26465 455.664 4.19141 456.197 4.19141ZM455.942 5.42188C455.274 5.42188 454.735 5.55078 454.325 5.80859C453.921 6.06641 453.625 6.45312 453.438 6.96875C453.25 7.47852 453.15 8.12012 453.139 8.89355V9.1748C453.139 9.98926 453.227 10.6777 453.402 11.2402C453.584 11.8027 453.88 12.2305 454.29 12.5234C454.706 12.8164 455.263 12.9629 455.96 12.9629C456.558 12.9629 457.056 12.8018 457.454 12.4795C457.853 12.1572 458.148 11.709 458.342 11.1348C458.541 10.5547 458.641 9.88965 458.641 9.13965C458.641 8.00293 458.418 7.10059 457.973 6.43262C457.533 5.75879 456.856 5.42188 455.942 5.42188ZM464.16 14H462.692V0.324219H464.16V14ZM470.849 4.20898C471.997 4.20898 472.85 4.4668 473.406 4.98242C473.963 5.49805 474.241 6.32129 474.241 7.45215V14H473.178L472.896 12.5762H472.826C472.557 12.9277 472.275 13.2236 471.982 13.4639C471.689 13.6982 471.35 13.877 470.963 14C470.582 14.1172 470.113 14.1758 469.557 14.1758C468.971 14.1758 468.449 14.0732 467.992 13.8682C467.541 13.6631 467.184 13.3525 466.92 12.9365C466.662 12.5205 466.533 11.9932 466.533 11.3545C466.533 10.3936 466.914 9.65527 467.676 9.13965C468.438 8.62402 469.598 8.34277 471.156 8.2959L472.817 8.22559V7.63672C472.817 6.80469 472.639 6.22168 472.281 5.8877C471.924 5.55371 471.42 5.38672 470.77 5.38672C470.266 5.38672 469.785 5.45996 469.328 5.60645C468.871 5.75293 468.438 5.92578 468.027 6.125L467.579 5.01758C468.013 4.79492 468.511 4.60449 469.073 4.44629C469.636 4.28809 470.228 4.20898 470.849 4.20898ZM472.8 9.25391L471.332 9.31543C470.131 9.3623 469.284 9.55859 468.792 9.9043C468.3 10.25 468.054 10.7393 468.054 11.3721C468.054 11.9229 468.221 12.3301 468.555 12.5938C468.889 12.8574 469.331 12.9893 469.882 12.9893C470.737 12.9893 471.438 12.752 471.982 12.2773C472.527 11.8027 472.8 11.0908 472.8 10.1416V9.25391ZM480.358 12.9805C480.599 12.9805 480.845 12.96 481.097 12.9189C481.349 12.8779 481.554 12.8281 481.712 12.7695V13.9033C481.542 13.9795 481.305 14.0439 481 14.0967C480.701 14.1494 480.408 14.1758 480.121 14.1758C479.611 14.1758 479.148 14.0879 478.732 13.9121C478.316 13.7305 477.982 13.4258 477.73 12.998C477.484 12.5703 477.361 11.9785 477.361 11.2227V5.50977H475.99V4.79785L477.37 4.22656L477.95 2.13477H478.829V4.36719H481.65V5.50977H478.829V11.1787C478.829 11.7822 478.967 12.2334 479.242 12.5322C479.523 12.8311 479.896 12.9805 480.358 12.9805ZM487.372 4.19141C488.192 4.19141 488.896 4.37305 489.481 4.73633C490.067 5.09961 490.516 5.60938 490.826 6.26562C491.137 6.91602 491.292 7.67773 491.292 8.55078V9.45605H484.639C484.656 10.5869 484.938 11.4482 485.482 12.04C486.027 12.6318 486.795 12.9277 487.785 12.9277C488.395 12.9277 488.934 12.8721 489.402 12.7607C489.871 12.6494 490.357 12.4854 490.861 12.2686V13.5518C490.375 13.7686 489.892 13.9268 489.411 14.0264C488.937 14.126 488.374 14.1758 487.724 14.1758C486.798 14.1758 485.989 13.9883 485.298 13.6133C484.612 13.2324 484.079 12.6758 483.698 11.9434C483.317 11.2109 483.127 10.3145 483.127 9.25391C483.127 8.2168 483.3 7.32031 483.646 6.56445C483.997 5.80273 484.489 5.2168 485.122 4.80664C485.761 4.39648 486.511 4.19141 487.372 4.19141ZM487.354 5.38672C486.575 5.38672 485.954 5.6416 485.491 6.15137C485.028 6.66113 484.753 7.37305 484.665 8.28711H489.763C489.757 7.71289 489.666 7.20898 489.49 6.77539C489.32 6.33594 489.06 5.99609 488.708 5.75586C488.356 5.50977 487.905 5.38672 487.354 5.38672ZM500.002 11.3633C500.002 11.9785 499.847 12.4971 499.536 12.9189C499.231 13.335 498.792 13.6484 498.218 13.8594C497.649 14.0703 496.97 14.1758 496.179 14.1758C495.505 14.1758 494.922 14.123 494.43 14.0176C493.938 13.9121 493.507 13.7627 493.138 13.5693V12.2246C493.53 12.418 493.999 12.5938 494.544 12.752C495.089 12.9102 495.646 12.9893 496.214 12.9893C497.046 12.9893 497.649 12.8545 498.024 12.585C498.399 12.3154 498.587 11.9492 498.587 11.4863C498.587 11.2227 498.511 10.9912 498.358 10.792C498.212 10.5869 497.963 10.3906 497.611 10.2031C497.26 10.0098 496.773 9.79883 496.152 9.57031C495.537 9.33594 495.004 9.10449 494.553 8.87598C494.107 8.6416 493.762 8.35742 493.516 8.02344C493.275 7.68945 493.155 7.25586 493.155 6.72266C493.155 5.9082 493.483 5.28418 494.14 4.85059C494.802 4.41113 495.669 4.19141 496.741 4.19141C497.321 4.19141 497.863 4.25 498.367 4.36719C498.877 4.47852 499.352 4.63086 499.791 4.82422L499.299 5.99316C498.9 5.82324 498.476 5.67969 498.024 5.5625C497.573 5.44531 497.113 5.38672 496.645 5.38672C495.971 5.38672 495.452 5.49805 495.089 5.7207C494.731 5.94336 494.553 6.24805 494.553 6.63477C494.553 6.93359 494.635 7.17969 494.799 7.37305C494.969 7.56641 495.238 7.74805 495.607 7.91797C495.977 8.08789 496.463 8.28711 497.066 8.51562C497.67 8.73828 498.191 8.96973 498.631 9.20996C499.07 9.44434 499.407 9.73145 499.642 10.0713C499.882 10.4053 500.002 10.8359 500.002 11.3633ZM506.207 9.81641V8.51562H510.566V9.81641H506.207ZM521.078 1.15039C522.736 1.15039 523.946 1.47559 524.708 2.12598C525.476 2.77051 525.859 3.69629 525.859 4.90332C525.859 5.44824 525.769 5.9668 525.587 6.45898C525.411 6.94531 525.124 7.37598 524.726 7.75098C524.327 8.12012 523.803 8.41309 523.152 8.62988C522.508 8.84082 521.717 8.94629 520.779 8.94629H519.215V14H517.721V1.15039H521.078ZM520.938 2.4248H519.215V7.66309H520.612C521.433 7.66309 522.115 7.5752 522.66 7.39941C523.211 7.22363 523.624 6.93945 523.899 6.54688C524.175 6.14844 524.312 5.62109 524.312 4.96484C524.312 4.10938 524.04 3.47363 523.495 3.05762C522.95 2.63574 522.098 2.4248 520.938 2.4248ZM536.635 9.16602C536.635 9.95703 536.532 10.6631 536.327 11.2842C536.122 11.9053 535.826 12.4297 535.439 12.8574C535.053 13.2852 534.584 13.6133 534.033 13.8418C533.488 14.0645 532.87 14.1758 532.179 14.1758C531.534 14.1758 530.942 14.0645 530.403 13.8418C529.87 13.6133 529.407 13.2852 529.015 12.8574C528.628 12.4297 528.326 11.9053 528.109 11.2842C527.898 10.6631 527.793 9.95703 527.793 9.16602C527.793 8.11133 527.972 7.21484 528.329 6.47656C528.687 5.73242 529.196 5.16699 529.858 4.78027C530.526 4.3877 531.32 4.19141 532.24 4.19141C533.119 4.19141 533.887 4.3877 534.543 4.78027C535.205 5.17285 535.718 5.74121 536.081 6.48535C536.45 7.22363 536.635 8.11719 536.635 9.16602ZM529.305 9.16602C529.305 9.93945 529.407 10.6104 529.612 11.1787C529.817 11.7471 530.134 12.1865 530.562 12.4971C530.989 12.8076 531.54 12.9629 532.214 12.9629C532.882 12.9629 533.43 12.8076 533.857 12.4971C534.291 12.1865 534.61 11.7471 534.815 11.1787C535.021 10.6104 535.123 9.93945 535.123 9.16602C535.123 8.39844 535.021 7.73633 534.815 7.17969C534.61 6.61719 534.294 6.18359 533.866 5.87891C533.438 5.57422 532.885 5.42188 532.205 5.42188C531.203 5.42188 530.468 5.75293 529.999 6.41504C529.536 7.07715 529.305 7.99414 529.305 9.16602ZM546.997 13.9824L545.283 8.375C545.207 8.13477 545.134 7.90039 545.063 7.67188C544.999 7.4375 544.938 7.21484 544.879 7.00391C544.826 6.78711 544.776 6.58789 544.729 6.40625C544.688 6.21875 544.653 6.05762 544.624 5.92285H544.562C544.539 6.05762 544.507 6.21875 544.466 6.40625C544.425 6.58789 544.375 6.78711 544.316 7.00391C544.264 7.2207 544.205 7.44922 544.141 7.68945C544.076 7.92383 544.003 8.16113 543.921 8.40137L542.128 13.9824H540.484L537.83 4.34961H539.342L540.73 9.66699C540.824 10.0186 540.912 10.3672 540.994 10.7129C541.082 11.0527 541.155 11.375 541.214 11.6797C541.278 11.9785 541.325 12.2393 541.354 12.4619H541.425C541.46 12.3154 541.498 12.1396 541.539 11.9346C541.586 11.7295 541.636 11.5127 541.688 11.2842C541.747 11.0498 541.809 10.8184 541.873 10.5898C541.938 10.3555 542.002 10.1357 542.066 9.93066L543.842 4.34961H545.415L547.129 9.92188C547.217 10.2031 547.302 10.4961 547.384 10.8008C547.472 11.1055 547.551 11.4014 547.621 11.6885C547.691 11.9697 547.741 12.2217 547.771 12.4443H547.841C547.864 12.2451 547.908 11.999 547.973 11.7061C548.037 11.4131 548.11 11.0908 548.192 10.7393C548.28 10.3877 548.371 10.0303 548.465 9.66699L549.871 4.34961H551.356L548.693 13.9824H546.997ZM556.823 4.19141C557.644 4.19141 558.347 4.37305 558.933 4.73633C559.519 5.09961 559.967 5.60938 560.277 6.26562C560.588 6.91602 560.743 7.67773 560.743 8.55078V9.45605H554.09C554.107 10.5869 554.389 11.4482 554.934 12.04C555.479 12.6318 556.246 12.9277 557.236 12.9277C557.846 12.9277 558.385 12.8721 558.854 12.7607C559.322 12.6494 559.809 12.4854 560.312 12.2686V13.5518C559.826 13.7686 559.343 13.9268 558.862 14.0264C558.388 14.126 557.825 14.1758 557.175 14.1758C556.249 14.1758 555.44 13.9883 554.749 13.6133C554.063 13.2324 553.53 12.6758 553.149 11.9434C552.769 11.2109 552.578 10.3145 552.578 9.25391C552.578 8.2168 552.751 7.32031 553.097 6.56445C553.448 5.80273 553.94 5.2168 554.573 4.80664C555.212 4.39648 555.962 4.19141 556.823 4.19141ZM556.806 5.38672C556.026 5.38672 555.405 5.6416 554.942 6.15137C554.479 6.66113 554.204 7.37305 554.116 8.28711H559.214C559.208 7.71289 559.117 7.20898 558.941 6.77539C558.771 6.33594 558.511 5.99609 558.159 5.75586C557.808 5.50977 557.356 5.38672 556.806 5.38672ZM567.599 4.19141C567.792 4.19141 567.994 4.20312 568.205 4.22656C568.416 4.24414 568.604 4.27051 568.768 4.30566L568.583 5.65918C568.425 5.61816 568.249 5.58594 568.056 5.5625C567.862 5.53906 567.681 5.52734 567.511 5.52734C567.124 5.52734 566.758 5.60645 566.412 5.76465C566.072 5.91699 565.773 6.13965 565.516 6.43262C565.258 6.71973 565.056 7.06836 564.909 7.47852C564.763 7.88281 564.689 8.33398 564.689 8.83203V14H563.222V4.36719H564.435L564.593 6.14258H564.654C564.854 5.78516 565.094 5.45996 565.375 5.16699C565.656 4.86816 565.981 4.63086 566.351 4.45508C566.726 4.2793 567.142 4.19141 567.599 4.19141ZM574.296 4.19141C575.116 4.19141 575.819 4.37305 576.405 4.73633C576.991 5.09961 577.439 5.60938 577.75 6.26562C578.061 6.91602 578.216 7.67773 578.216 8.55078V9.45605H571.562C571.58 10.5869 571.861 11.4482 572.406 12.04C572.951 12.6318 573.719 12.9277 574.709 12.9277C575.318 12.9277 575.857 12.8721 576.326 12.7607C576.795 12.6494 577.281 12.4854 577.785 12.2686V13.5518C577.299 13.7686 576.815 13.9268 576.335 14.0264C575.86 14.126 575.298 14.1758 574.647 14.1758C573.722 14.1758 572.913 13.9883 572.222 13.6133C571.536 13.2324 571.003 12.6758 570.622 11.9434C570.241 11.2109 570.051 10.3145 570.051 9.25391C570.051 8.2168 570.224 7.32031 570.569 6.56445C570.921 5.80273 571.413 5.2168 572.046 4.80664C572.685 4.39648 573.435 4.19141 574.296 4.19141ZM574.278 5.38672C573.499 5.38672 572.878 5.6416 572.415 6.15137C571.952 6.66113 571.677 7.37305 571.589 8.28711H576.687C576.681 7.71289 576.59 7.20898 576.414 6.77539C576.244 6.33594 575.983 5.99609 575.632 5.75586C575.28 5.50977 574.829 5.38672 574.278 5.38672ZM584.122 14.1758C582.903 14.1758 581.937 13.7598 581.222 12.9277C580.513 12.0957 580.158 10.8594 580.158 9.21875C580.158 7.56055 580.521 6.30957 581.248 5.46582C581.975 4.61621 582.941 4.19141 584.148 4.19141C584.658 4.19141 585.104 4.25879 585.484 4.39355C585.865 4.52832 586.193 4.70996 586.469 4.93848C586.744 5.16113 586.976 5.41602 587.163 5.70312H587.269C587.245 5.52148 587.222 5.27246 587.198 4.95605C587.175 4.63965 587.163 4.38184 587.163 4.18262V0.324219H588.622V14H587.444L587.225 12.6289H587.163C586.981 12.916 586.75 13.1768 586.469 13.4111C586.193 13.6455 585.862 13.833 585.476 13.9736C585.095 14.1084 584.644 14.1758 584.122 14.1758ZM584.351 12.9629C585.382 12.9629 586.111 12.6699 586.539 12.084C586.967 11.498 587.181 10.6279 587.181 9.47363V9.20996C587.181 7.98535 586.976 7.04492 586.565 6.38867C586.161 5.73242 585.423 5.4043 584.351 5.4043C583.454 5.4043 582.783 5.75 582.338 6.44141C581.893 7.12695 581.67 8.06445 581.67 9.25391C581.67 10.4375 581.89 11.3516 582.329 11.9961C582.774 12.6406 583.448 12.9629 584.351 12.9629ZM597.851 0.324219V3.74316C597.851 4.13574 597.839 4.5166 597.815 4.88574C597.798 5.25488 597.783 5.54199 597.771 5.74707H597.851C598.114 5.31348 598.495 4.94727 598.993 4.64844C599.491 4.34961 600.127 4.2002 600.9 4.2002C602.107 4.2002 603.068 4.61914 603.783 5.45703C604.504 6.28906 604.864 7.52832 604.864 9.1748C604.864 10.2588 604.7 11.1729 604.372 11.917C604.044 12.6611 603.581 13.2236 602.983 13.6045C602.386 13.9854 601.68 14.1758 600.865 14.1758C600.104 14.1758 599.477 14.0352 598.984 13.7539C598.498 13.4668 598.123 13.1182 597.859 12.708H597.745L597.446 14H596.392V0.324219H597.851ZM600.663 5.42188C599.966 5.42188 599.412 5.55957 599.002 5.83496C598.592 6.10449 598.296 6.51465 598.114 7.06543C597.938 7.61035 597.851 8.30176 597.851 9.13965V9.21875C597.851 10.4316 598.053 11.3604 598.457 12.0049C598.861 12.6436 599.597 12.9629 600.663 12.9629C601.56 12.9629 602.23 12.6348 602.676 11.9785C603.127 11.3223 603.353 10.3848 603.353 9.16602C603.353 7.92383 603.13 6.98926 602.685 6.3623C602.245 5.73535 601.571 5.42188 600.663 5.42188ZM605.893 4.36719H607.457L609.584 9.95703C609.707 10.2852 609.821 10.6016 609.927 10.9062C610.032 11.2051 610.126 11.4922 610.208 11.7676C610.29 12.043 610.354 12.3096 610.401 12.5674H610.463C610.545 12.2744 610.662 11.8906 610.814 11.416C610.967 10.9355 611.131 10.4463 611.307 9.94824L613.319 4.36719H614.893L610.7 15.415C610.478 16.0068 610.217 16.5225 609.918 16.9619C609.625 17.4014 609.268 17.7383 608.846 17.9727C608.424 18.2129 607.914 18.333 607.316 18.333C607.041 18.333 606.798 18.3154 606.587 18.2803C606.376 18.251 606.194 18.2158 606.042 18.1748V17.0059C606.171 17.0352 606.326 17.0615 606.508 17.085C606.695 17.1084 606.889 17.1201 607.088 17.1201C607.451 17.1201 607.765 17.0498 608.028 16.9092C608.298 16.7744 608.529 16.5752 608.723 16.3115C608.916 16.0479 609.083 15.7344 609.224 15.3711L609.751 14.0176L605.893 4.36719ZM636.971 1.15039L633.701 14H630.599L628.858 7.25C628.823 7.12109 628.776 6.9248 628.718 6.66113C628.659 6.39746 628.598 6.11035 628.533 5.7998C628.469 5.4834 628.41 5.1875 628.357 4.91211C628.311 4.63086 628.278 4.4082 628.261 4.24414C628.243 4.4082 628.208 4.62793 628.155 4.90332C628.108 5.17871 628.053 5.47168 627.988 5.78223C627.93 6.09277 627.871 6.38281 627.812 6.65234C627.754 6.92188 627.707 7.12695 627.672 7.26758L625.94 14H622.847L619.568 1.15039H622.249L623.893 8.16406C623.939 8.375 623.992 8.62695 624.051 8.91992C624.115 9.21289 624.177 9.52051 624.235 9.84277C624.3 10.1592 624.355 10.4668 624.402 10.7656C624.455 11.0586 624.493 11.3135 624.517 11.5303C624.546 11.3076 624.584 11.0498 624.631 10.7568C624.678 10.458 624.728 10.1562 624.78 9.85156C624.839 9.54102 624.897 9.25391 624.956 8.99023C625.015 8.72656 625.067 8.5127 625.114 8.34863L626.986 1.15039H629.562L631.434 8.34863C631.475 8.50684 631.521 8.7207 631.574 8.99023C631.633 9.25391 631.691 9.54102 631.75 9.85156C631.809 10.1621 631.861 10.4668 631.908 10.7656C631.961 11.0586 631.999 11.3135 632.022 11.5303C632.063 11.2373 632.119 10.8828 632.189 10.4668C632.266 10.0449 632.345 9.62598 632.427 9.20996C632.515 8.79395 632.591 8.44531 632.655 8.16406L634.29 1.15039H636.971ZM642.429 3.98926C643.337 3.98926 644.119 4.16504 644.775 4.5166C645.432 4.8623 645.938 5.36621 646.296 6.02832C646.653 6.69043 646.832 7.49902 646.832 8.4541V9.75488H640.495C640.524 10.5107 640.75 11.1055 641.172 11.5391C641.6 11.9668 642.191 12.1807 642.947 12.1807C643.574 12.1807 644.148 12.1162 644.67 11.9873C645.191 11.8584 645.728 11.665 646.278 11.4072V13.4814C645.792 13.7217 645.282 13.8975 644.749 14.0088C644.222 14.1201 643.58 14.1758 642.824 14.1758C641.84 14.1758 640.967 13.9941 640.205 13.6309C639.449 13.2676 638.854 12.7139 638.421 11.9697C637.993 11.2256 637.779 10.2881 637.779 9.15723C637.779 8.00879 637.973 7.05371 638.359 6.29199C638.752 5.52441 639.297 4.9502 639.994 4.56934C640.691 4.18262 641.503 3.98926 642.429 3.98926ZM642.446 5.89648C641.925 5.89648 641.491 6.06348 641.146 6.39746C640.806 6.73145 640.609 7.25586 640.557 7.9707H644.318C644.312 7.57227 644.239 7.21777 644.099 6.90723C643.964 6.59668 643.759 6.35059 643.483 6.16895C643.214 5.9873 642.868 5.89648 642.446 5.89648ZM651.692 0.324219V3.50586C651.692 3.875 651.681 4.24121 651.657 4.60449C651.64 4.96777 651.616 5.24902 651.587 5.44824H651.692C651.95 5.04395 652.302 4.70117 652.747 4.41992C653.192 4.13281 653.77 3.98926 654.479 3.98926C655.58 3.98926 656.474 4.41992 657.159 5.28125C657.845 6.14258 658.188 7.40527 658.188 9.06934C658.188 10.1885 658.029 11.1289 657.713 11.8906C657.396 12.6465 656.954 13.2178 656.386 13.6045C655.817 13.9854 655.158 14.1758 654.408 14.1758C653.688 14.1758 653.119 14.0469 652.703 13.7891C652.287 13.5312 651.95 13.2412 651.692 12.9189H651.508L651.06 14H649.012V0.324219H651.692ZM653.617 6.13379C653.148 6.13379 652.776 6.23047 652.501 6.42383C652.226 6.61719 652.023 6.90723 651.895 7.29395C651.771 7.68066 651.704 8.16992 651.692 8.76172V9.05176C651.692 10.0068 651.833 10.7393 652.114 11.249C652.396 11.7529 652.908 12.0049 653.652 12.0049C654.203 12.0049 654.64 11.75 654.962 11.2402C655.29 10.7305 655.454 9.99512 655.454 9.03418C655.454 8.07324 655.29 7.34961 654.962 6.86328C654.634 6.37695 654.186 6.13379 653.617 6.13379ZM665.834 6.18652H663.514V14H660.833V6.18652H659.356V4.89453L660.833 4.17383V3.45312C660.833 2.61523 660.974 1.96484 661.255 1.50195C661.542 1.0332 661.943 0.705078 662.459 0.517578C662.98 0.324219 663.596 0.227539 664.305 0.227539C664.826 0.227539 665.301 0.271484 665.729 0.359375C666.156 0.441406 666.505 0.535156 666.774 0.640625L666.089 2.60938C665.884 2.54492 665.661 2.48633 665.421 2.43359C665.181 2.38086 664.905 2.35449 664.595 2.35449C664.22 2.35449 663.944 2.46875 663.769 2.69727C663.599 2.91992 663.514 3.20703 663.514 3.55859V4.17383H665.834V6.18652ZM670.053 14H667.372V0.324219H670.053V14ZM681.795 9.06934C681.795 9.88965 681.684 10.6162 681.461 11.249C681.244 11.8818 680.925 12.418 680.503 12.8574C680.087 13.291 679.583 13.6191 678.991 13.8418C678.405 14.0645 677.743 14.1758 677.005 14.1758C676.313 14.1758 675.678 14.0645 675.098 13.8418C674.523 13.6191 674.022 13.291 673.595 12.8574C673.173 12.418 672.845 11.8818 672.61 11.249C672.382 10.6162 672.268 9.88965 672.268 9.06934C672.268 7.97949 672.461 7.05664 672.848 6.30078C673.234 5.54492 673.785 4.9707 674.5 4.57812C675.215 4.18555 676.067 3.98926 677.058 3.98926C677.978 3.98926 678.792 4.18555 679.501 4.57812C680.216 4.9707 680.775 5.54492 681.18 6.30078C681.59 7.05664 681.795 7.97949 681.795 9.06934ZM675.001 9.06934C675.001 9.71387 675.071 10.2559 675.212 10.6953C675.353 11.1348 675.572 11.4658 675.871 11.6885C676.17 11.9111 676.56 12.0225 677.04 12.0225C677.515 12.0225 677.898 11.9111 678.191 11.6885C678.49 11.4658 678.707 11.1348 678.842 10.6953C678.982 10.2559 679.053 9.71387 679.053 9.06934C679.053 8.41895 678.982 7.87988 678.842 7.45215C678.707 7.01855 678.49 6.69336 678.191 6.47656C677.893 6.25977 677.503 6.15137 677.022 6.15137C676.313 6.15137 675.798 6.39453 675.476 6.88086C675.159 7.36719 675.001 8.09668 675.001 9.06934ZM692.087 14L691.331 10.5635C691.29 10.3584 691.223 10.0566 691.129 9.6582C691.035 9.25391 690.933 8.82324 690.821 8.36621C690.716 7.90332 690.616 7.47559 690.522 7.08301C690.435 6.69043 690.37 6.40332 690.329 6.22168H690.25C690.209 6.40332 690.145 6.69043 690.057 7.08301C689.969 7.47559 689.869 7.90332 689.758 8.36621C689.652 8.8291 689.553 9.26562 689.459 9.67578C689.365 10.0801 689.295 10.3877 689.248 10.5986L688.457 14H685.574L682.779 4.17383H685.451L686.585 8.52441C686.661 8.8291 686.734 9.19238 686.805 9.61426C686.875 10.0303 686.937 10.4346 686.989 10.8271C687.048 11.2139 687.092 11.5215 687.121 11.75H687.191C687.203 11.5801 687.227 11.3545 687.262 11.0732C687.303 10.792 687.347 10.502 687.394 10.2031C687.446 9.89844 687.493 9.62598 687.534 9.38574C687.581 9.13965 687.616 8.97266 687.64 8.88477L688.853 4.17383H691.806L692.957 8.88477C692.998 9.05469 693.051 9.32422 693.115 9.69336C693.186 10.0625 693.247 10.4434 693.3 10.8359C693.353 11.2227 693.382 11.5273 693.388 11.75H693.458C693.481 11.5508 693.522 11.2549 693.581 10.8623C693.64 10.4697 693.707 10.0596 693.783 9.63184C693.865 9.19824 693.947 8.8291 694.029 8.52441L695.207 4.17383H697.835L695.005 14H692.087Z" fill="#525C60"/>
</svg>
